<?xml version="1.0" encoding="utf-8"?>
<!-- Generator: Adobe Illustrator 16.0.0, SVG Export Plug-In . SVG Version: 6.00 Build 0)  -->
<!DOCTYPE svg PUBLIC "-//W3C//DTD SVG 1.1//EN" "http://www.w3.org/Graphics/SVG/1.1/DTD/svg11.dtd">
<svg version="1.1" id="bobTheBlob" xmlns="http://www.w3.org/2000/svg" xmlns:xlink="http://www.w3.org/1999/xlink" x="0px" y="0px"
	 width="640px" height="480px" viewBox="0 0 640 480" enable-background="new 0 0 640 480" xml:space="preserve">
<path fill="#3D77F9" stroke="#000000" stroke-miterlimit="10" d="M167.558,240c-29.792-49.22,28.572-127.83,80.272-117.626
	S347.15,203.885,309.735,240C272.32,276.115,187.285,272.592,167.558,240z"/>
<ellipse id="mouth" fill="#FFFFFF" stroke="#000000" stroke-miterlimit="10" cx="236.123" cy="229.75" rx="51.123" ry="13.75"/>
<g id="eyes">
	<ellipse fill="#FFFFFF" stroke="#000000" stroke-miterlimit="10" cx="210.5" cy="166.563" rx="12.5" ry="16.063"/>
	<ellipse fill="#FFFFFF" stroke="#000000" stroke-miterlimit="10" cx="258.5" cy="166.563" rx="12.5" ry="16.063"/>
	<ellipse id="rightIris" stroke="#000000" stroke-miterlimit="10" cx="258" cy="166.5" rx="4" ry="5"/>
	<ellipse id="leftIris" stroke="#000000" stroke-miterlimit="10" cx="209" cy="166.5" rx="4" ry="5"/>
</g>
<g id="ears">
	<path fill="#C19C00" stroke="#000000" stroke-miterlimit="10" d="M183.948,150.24c0,0-11.383-60.228-3.111-51.769
		c3.318,3.393,33.76,27.125,29.409,30.544C197.023,139.409,197.402,135.579,183.948,150.24z"/>
	<path fill="#C19C00" stroke="#000000" stroke-miterlimit="10" d="M297.546,152.24c0,0,11.383-60.228,3.111-51.769
		c-3.318,3.393-33.76,27.125-29.409,30.544C284.471,141.409,284.092,137.579,297.546,152.24z"/>
</g>
</svg>

