<?xml version="1.0" encoding="utf-8"?>
<!-- Generator: Adobe Illustrator 16.0.0, SVG Export Plug-In . SVG Version: 6.00 Build 0)  -->
<!DOCTYPE svg PUBLIC "-//W3C//DTD SVG 1.1//EN" "http://www.w3.org/Graphics/SVG/1.1/DTD/svg11.dtd">
<svg version="1.1" id="bunny" xmlns="http://www.w3.org/2000/svg" xmlns:xlink="http://www.w3.org/1999/xlink" x="0px" y="0px"
	 width="640px" height="480px" viewBox="0 0 640 480" enable-background="new 0 0 640 480" xml:space="preserve">
<path id="rightArm" fill="#FFFFFF" stroke="#000000" stroke-miterlimit="10" d="M239.578,281.558c0,0-17.007-8.163-35.374,12.245
	s-54.422-3.401-54.422,4.762s-4.081,44.898,19.048,32.653s76.446-40.061,70.748-45.578"/>
<g id="feet">
	<path fill="#FFFFFF" stroke="#000000" stroke-miterlimit="10" d="M258.24,383.384c19.952-24.846,121.322,13.058,115.199,22.582
		S240.32,405.699,258.24,383.384z"/>
	<path fill="#FFFFFF" stroke="#000000" stroke-miterlimit="10" d="M256.974,383.384c-19.952-24.846-121.321,13.058-115.199,22.582
		S274.894,405.699,256.974,383.384z"/>
</g>
<path id="body" fill="#FFFFFF" stroke="#000000" stroke-miterlimit="10" d="M212.047,284.614c0,0-17.295,99.874,39.277,106.981
	c56.573,7.11,75.289-104.079,57.806-124.436C291.647,246.804,214.533,251.464,212.047,284.614z"/>
<path id="leftArm" fill="#FFFFFF" stroke="#000000" stroke-miterlimit="10" d="M304.039,271.61
	c-2.806,2.211-8.799,15.754,12.329,33.288s-1.216,54.515,6.94,54.188c8.156-0.328,45.025,2.277,31.863-20.342
	c-13.163-22.619-43.094-74.777-48.378-68.864L304.039,271.61z"/>
<g id="ears">
	<path fill="#FFFFFF" stroke="#000000" stroke-miterlimit="10" d="M239.788,192.369c0,0-36.033-78.877-72.008-16.739
		c-35.974,62.138-76.171,93.263-64.745,21.247c11.426-72.016,134.568-120.702,150.713-21.211
		C269.894,275.158,239.788,192.369,239.788,192.369z"/>
	<path fill="#FFFFFF" stroke="#000000" stroke-miterlimit="10" d="M274.36,218.973c0,0,4.762-117.006,91.156-59.864
		s57.143,80.272,42.857,91.836s-72.108-155.102-123.129-29.932c-10.885,1.36-10.885,1.36-10.885,1.36"/>
</g>
<path id="head" fill="#FFFFFF" stroke="#000000" stroke-miterlimit="10" d="M252.592,205.367c0,0-56.462-3.523-32.653,34.633
	s63.265,36.115,76.871,8.904C310.415,221.694,287.054,196.98,252.592,205.367z"/>
</svg>

